<svg width="16" height="16" viewBox="0 0 16 16" fill="none" xmlns="http://www.w3.org/2000/svg">
<path fill-rule="evenodd" clip-rule="evenodd" d="M16 8C16 12.4364 12.4 16 8 16C3.6 16 0 12.4 0 8C0 3.6 3.6 0 8 0C12.4364 0 16 3.56364 16 8Z" fill="#7E8BA7"/>
<path fill-rule="evenodd" clip-rule="evenodd" d="M13 6.33333H11.3333V4.66667H9.66667V3H6.33333V4.66667H4.66667V6.33333H3V9.66667H4.66667V11.3333H6.33333V13H9.66667V11.3333H11.3333V9.66667H13V6.33333Z" fill="#98A4BF"/>
<path fill-rule="evenodd" clip-rule="evenodd" d="M12.1847 7.14974H10.518V5.48307H8.85132V3.81641H7.18465V5.48307H5.51799V7.14974H3.85132V8.81641H5.51799V10.4831H7.18465V12.1497H8.85132V10.4831H10.518V8.81641H12.1847V7.14974Z" fill="white"/>
<path fill-rule="evenodd" clip-rule="evenodd" d="M10.5176 7.1497H8.85091V5.48303H7.18424V7.1497H5.51758V8.81637H7.18424V10.483H8.85091V8.81637H10.5176V7.1497Z" fill="#7E8BA7"/>
</svg>
