<svg width="16" height="16" viewBox="0 0 16 16" fill="none" xmlns="http://www.w3.org/2000/svg">
<rect width="16" height="16" rx="8" fill="#1A8FF1"/>
<path d="M10.1304 6.91095C9.95227 7.0905 9.66168 7.0922 9.48139 6.91476C9.3011 6.73731 9.29939 6.44791 9.47756 6.26836C9.65574 6.08881 9.94633 6.0871 10.1266 6.26455C10.3069 6.44199 10.3086 6.7314 10.1304 6.91095Z" fill="white"/>
<path fill-rule="evenodd" clip-rule="evenodd" d="M7.19024 4.28167C7.52384 3.94549 7.97521 3.75103 8.44965 3.7391L10.8321 3.67918C11.8735 3.65299 12.7281 4.49412 12.7141 5.53152L12.682 7.90475C12.6757 8.37736 12.4857 8.82914 12.1521 9.16532L8.67167 12.6726C8.10151 13.2472 7.17162 13.2527 6.5947 12.6848L3.72202 9.85746C3.14509 9.28963 3.13961 8.36355 3.70977 7.78899L7.19024 4.28167ZM5.79287 8.81103C5.93541 8.66739 6.16788 8.66602 6.31212 8.80798L7.61788 10.0932C7.76211 10.2351 7.76348 10.4666 7.62094 10.6103C7.4784 10.7539 7.24593 10.7553 7.1017 10.6133L5.79593 9.32815C5.6517 9.18619 5.65033 8.95467 5.79287 8.81103ZM10.6527 7.42501C10.1895 7.89184 9.43395 7.89628 8.96521 7.43492C8.49646 6.97357 8.492 6.22112 8.95526 5.75429C9.41851 5.28746 10.1741 5.28302 10.6428 5.74438C11.1115 6.20574 11.116 6.95818 10.6527 7.42501Z" fill="white"/>
</svg>
